<mxfile host="Electron" modified="2024-02-02T19:40:06.169Z" agent="Mozilla/5.0 (Windows NT 10.0; Win64; x64) AppleWebKit/537.36 (KHTML, like Gecko) draw.io/23.0.2 Chrome/120.0.6099.109 Electron/28.1.0 Safari/537.36" etag="bMHSbyc7VG3-vO4v6xeG" version="23.0.2" type="device">
  <diagram name="classes" id="hH1hTNo3uVmU2OOWH7l1">
    <mxGraphModel dx="989" dy="659" grid="1" gridSize="10" guides="1" tooltips="1" connect="1" arrows="1" fold="1" page="1" pageScale="1" pageWidth="1169" pageHeight="827" math="0" shadow="0">
      <root>
        <mxCell id="0" />
        <mxCell id="1" parent="0" />
        <mxCell id="cHO__mHuen6s9dg0i_nT-1" value="gdecoder" style="swimlane;fontStyle=1;align=center;verticalAlign=top;childLayout=stackLayout;horizontal=1;startSize=26;horizontalStack=0;resizeParent=1;resizeParentMax=0;resizeLast=0;collapsible=1;marginBottom=0;whiteSpace=wrap;html=1;" vertex="1" parent="1">
          <mxGeometry x="360" y="230" width="160" height="60" as="geometry" />
        </mxCell>
        <mxCell id="cHO__mHuen6s9dg0i_nT-3" value="" style="line;strokeWidth=1;fillColor=none;align=left;verticalAlign=middle;spacingTop=-1;spacingLeft=3;spacingRight=3;rotatable=0;labelPosition=right;points=[];portConstraint=eastwest;strokeColor=inherit;" vertex="1" parent="cHO__mHuen6s9dg0i_nT-1">
          <mxGeometry y="26" width="160" height="8" as="geometry" />
        </mxCell>
        <mxCell id="cHO__mHuen6s9dg0i_nT-4" value="+ main" style="text;strokeColor=none;fillColor=none;align=left;verticalAlign=top;spacingLeft=4;spacingRight=4;overflow=hidden;rotatable=0;points=[[0,0.5],[1,0.5]];portConstraint=eastwest;whiteSpace=wrap;html=1;" vertex="1" parent="cHO__mHuen6s9dg0i_nT-1">
          <mxGeometry y="34" width="160" height="26" as="geometry" />
        </mxCell>
        <mxCell id="cHO__mHuen6s9dg0i_nT-5" value="FileMetaInfos" style="swimlane;fontStyle=1;align=center;verticalAlign=top;childLayout=stackLayout;horizontal=1;startSize=26;horizontalStack=0;resizeParent=1;resizeParentMax=0;resizeLast=0;collapsible=1;marginBottom=0;whiteSpace=wrap;html=1;" vertex="1" parent="1">
          <mxGeometry x="780" y="90" width="160" height="114" as="geometry" />
        </mxCell>
        <mxCell id="cHO__mHuen6s9dg0i_nT-6" value="+ generator: string&lt;br&gt;+ lineCount: string&lt;br&gt;+ ...; string" style="text;strokeColor=none;fillColor=none;align=left;verticalAlign=top;spacingLeft=4;spacingRight=4;overflow=hidden;rotatable=0;points=[[0,0.5],[1,0.5]];portConstraint=eastwest;whiteSpace=wrap;html=1;" vertex="1" parent="cHO__mHuen6s9dg0i_nT-5">
          <mxGeometry y="26" width="160" height="54" as="geometry" />
        </mxCell>
        <mxCell id="cHO__mHuen6s9dg0i_nT-7" value="" style="line;strokeWidth=1;fillColor=none;align=left;verticalAlign=middle;spacingTop=-1;spacingLeft=3;spacingRight=3;rotatable=0;labelPosition=right;points=[];portConstraint=eastwest;strokeColor=inherit;" vertex="1" parent="cHO__mHuen6s9dg0i_nT-5">
          <mxGeometry y="80" width="160" height="8" as="geometry" />
        </mxCell>
        <mxCell id="cHO__mHuen6s9dg0i_nT-8" value="+ readMetaInfos(file)" style="text;strokeColor=none;fillColor=none;align=left;verticalAlign=top;spacingLeft=4;spacingRight=4;overflow=hidden;rotatable=0;points=[[0,0.5],[1,0.5]];portConstraint=eastwest;whiteSpace=wrap;html=1;" vertex="1" parent="cHO__mHuen6s9dg0i_nT-5">
          <mxGeometry y="88" width="160" height="26" as="geometry" />
        </mxCell>
        <mxCell id="cHO__mHuen6s9dg0i_nT-13" value="PrinterModelValue" style="swimlane;fontStyle=1;align=center;verticalAlign=top;childLayout=stackLayout;horizontal=1;startSize=26;horizontalStack=0;resizeParent=1;resizeParentMax=0;resizeLast=0;collapsible=1;marginBottom=0;whiteSpace=wrap;html=1;" vertex="1" parent="1">
          <mxGeometry x="820" y="340" width="160" height="104" as="geometry" />
        </mxCell>
        <mxCell id="cHO__mHuen6s9dg0i_nT-15" value="" style="line;strokeWidth=1;fillColor=none;align=left;verticalAlign=middle;spacingTop=-1;spacingLeft=3;spacingRight=3;rotatable=0;labelPosition=right;points=[];portConstraint=eastwest;strokeColor=inherit;" vertex="1" parent="cHO__mHuen6s9dg0i_nT-13">
          <mxGeometry y="26" width="160" height="8" as="geometry" />
        </mxCell>
        <mxCell id="cHO__mHuen6s9dg0i_nT-16" value="+ set(string): void&lt;br&gt;+ get(): string&lt;br&gt;+ getMin(): string&lt;br&gt;+ getMax(): string" style="text;strokeColor=none;fillColor=none;align=left;verticalAlign=top;spacingLeft=4;spacingRight=4;overflow=hidden;rotatable=0;points=[[0,0.5],[1,0.5]];portConstraint=eastwest;whiteSpace=wrap;html=1;" vertex="1" parent="cHO__mHuen6s9dg0i_nT-13">
          <mxGeometry y="34" width="160" height="70" as="geometry" />
        </mxCell>
        <mxCell id="cHO__mHuen6s9dg0i_nT-17" value="GDecodeLine" style="swimlane;fontStyle=1;align=center;verticalAlign=top;childLayout=stackLayout;horizontal=1;startSize=26;horizontalStack=0;resizeParent=1;resizeParentMax=0;resizeLast=0;collapsible=1;marginBottom=0;whiteSpace=wrap;html=1;" vertex="1" parent="1">
          <mxGeometry x="560" y="223" width="200" height="74" as="geometry" />
        </mxCell>
        <mxCell id="cHO__mHuen6s9dg0i_nT-19" value="" style="line;strokeWidth=1;fillColor=none;align=left;verticalAlign=middle;spacingTop=-1;spacingLeft=3;spacingRight=3;rotatable=0;labelPosition=right;points=[];portConstraint=eastwest;strokeColor=inherit;" vertex="1" parent="cHO__mHuen6s9dg0i_nT-17">
          <mxGeometry y="26" width="200" height="8" as="geometry" />
        </mxCell>
        <mxCell id="cHO__mHuen6s9dg0i_nT-20" value="+&amp;nbsp;&lt;span class=&quot;token function&quot;&gt;decodeGCodeLine&lt;/span&gt;&lt;span class=&quot;token punctuation&quot;&gt;&lt;/span&gt;(...): string&lt;br&gt;- _error_...: string" style="text;strokeColor=none;fillColor=none;align=left;verticalAlign=top;spacingLeft=4;spacingRight=4;overflow=hidden;rotatable=0;points=[[0,0.5],[1,0.5]];portConstraint=eastwest;whiteSpace=wrap;html=1;" vertex="1" parent="cHO__mHuen6s9dg0i_nT-17">
          <mxGeometry y="34" width="200" height="40" as="geometry" />
        </mxCell>
        <mxCell id="cHO__mHuen6s9dg0i_nT-21" value="Actor" style="shape=umlActor;verticalLabelPosition=bottom;verticalAlign=top;html=1;" vertex="1" parent="1">
          <mxGeometry x="260" y="247" width="30" height="60" as="geometry" />
        </mxCell>
        <mxCell id="cHO__mHuen6s9dg0i_nT-23" value="" style="endArrow=block;endFill=1;html=1;edgeStyle=orthogonalEdgeStyle;align=left;verticalAlign=top;rounded=0;" edge="1" parent="1" source="cHO__mHuen6s9dg0i_nT-1" target="cHO__mHuen6s9dg0i_nT-6">
          <mxGeometry x="-0.4613" y="-10" relative="1" as="geometry">
            <mxPoint x="320" y="200" as="sourcePoint" />
            <mxPoint x="380" y="400" as="targetPoint" />
            <mxPoint as="offset" />
          </mxGeometry>
        </mxCell>
        <mxCell id="cHO__mHuen6s9dg0i_nT-24" value="1" style="edgeLabel;resizable=0;html=1;align=left;verticalAlign=bottom;" connectable="0" vertex="1" parent="cHO__mHuen6s9dg0i_nT-23">
          <mxGeometry x="-1" relative="1" as="geometry" />
        </mxCell>
        <mxCell id="cHO__mHuen6s9dg0i_nT-27" value="" style="endArrow=block;endFill=1;html=1;edgeStyle=orthogonalEdgeStyle;align=left;verticalAlign=top;rounded=0;entryX=0;entryY=0.5;entryDx=0;entryDy=0;exitX=1;exitY=0.5;exitDx=0;exitDy=0;" edge="1" parent="1" source="cHO__mHuen6s9dg0i_nT-4" target="cHO__mHuen6s9dg0i_nT-20">
          <mxGeometry x="0.038" y="-10" relative="1" as="geometry">
            <mxPoint x="410" y="220" as="sourcePoint" />
            <mxPoint x="460" y="299" as="targetPoint" />
            <mxPoint as="offset" />
          </mxGeometry>
        </mxCell>
        <mxCell id="cHO__mHuen6s9dg0i_nT-28" value="1" style="edgeLabel;resizable=0;html=1;align=left;verticalAlign=bottom;" connectable="0" vertex="1" parent="cHO__mHuen6s9dg0i_nT-27">
          <mxGeometry x="-1" relative="1" as="geometry" />
        </mxCell>
        <mxCell id="cHO__mHuen6s9dg0i_nT-31" value="" style="endArrow=block;endFill=1;html=1;edgeStyle=orthogonalEdgeStyle;align=left;verticalAlign=top;rounded=0;exitX=1.011;exitY=0.642;exitDx=0;exitDy=0;entryX=-0.019;entryY=0.657;entryDx=0;entryDy=0;entryPerimeter=0;exitPerimeter=0;" edge="1" parent="1" source="cHO__mHuen6s9dg0i_nT-45" target="cHO__mHuen6s9dg0i_nT-16">
          <mxGeometry x="-0.4613" y="-10" relative="1" as="geometry">
            <mxPoint x="770" y="324" as="sourcePoint" />
            <mxPoint x="750" y="500" as="targetPoint" />
            <mxPoint as="offset" />
            <Array as="points">
              <mxPoint x="817" y="421" />
            </Array>
          </mxGeometry>
        </mxCell>
        <mxCell id="cHO__mHuen6s9dg0i_nT-32" value="n" style="edgeLabel;resizable=0;html=1;align=left;verticalAlign=bottom;" connectable="0" vertex="1" parent="cHO__mHuen6s9dg0i_nT-31">
          <mxGeometry x="-1" relative="1" as="geometry" />
        </mxCell>
        <mxCell id="cHO__mHuen6s9dg0i_nT-35" value="" style="endArrow=block;endFill=1;html=1;edgeStyle=orthogonalEdgeStyle;align=left;verticalAlign=top;rounded=0;entryX=0.01;entryY=0.629;entryDx=0;entryDy=0;exitX=0.461;exitY=0.999;exitDx=0;exitDy=0;exitPerimeter=0;entryPerimeter=0;" edge="1" parent="1" source="cHO__mHuen6s9dg0i_nT-4" target="cHO__mHuen6s9dg0i_nT-45">
          <mxGeometry x="-0.4613" y="-10" relative="1" as="geometry">
            <mxPoint x="370" y="287" as="sourcePoint" />
            <mxPoint x="570" y="324" as="targetPoint" />
            <mxPoint as="offset" />
            <Array as="points">
              <mxPoint x="418" y="290" />
              <mxPoint x="418" y="420" />
            </Array>
          </mxGeometry>
        </mxCell>
        <mxCell id="cHO__mHuen6s9dg0i_nT-36" value="1" style="edgeLabel;resizable=0;html=1;align=left;verticalAlign=bottom;" connectable="0" vertex="1" parent="cHO__mHuen6s9dg0i_nT-35">
          <mxGeometry x="-1" relative="1" as="geometry">
            <mxPoint x="2" y="13" as="offset" />
          </mxGeometry>
        </mxCell>
        <mxCell id="cHO__mHuen6s9dg0i_nT-37" value="r" style="endArrow=open;endFill=1;endSize=12;html=1;rounded=0;entryX=-0.004;entryY=0.746;entryDx=0;entryDy=0;entryPerimeter=0;exitX=0.5;exitY=0;exitDx=0;exitDy=0;" edge="1" parent="1" source="cHO__mHuen6s9dg0i_nT-17" target="cHO__mHuen6s9dg0i_nT-6">
          <mxGeometry width="160" relative="1" as="geometry">
            <mxPoint x="500" y="490" as="sourcePoint" />
            <mxPoint x="660" y="490" as="targetPoint" />
          </mxGeometry>
        </mxCell>
        <mxCell id="cHO__mHuen6s9dg0i_nT-39" value="reads" style="edgeLabel;html=1;align=center;verticalAlign=middle;resizable=0;points=[];" vertex="1" connectable="0" parent="cHO__mHuen6s9dg0i_nT-37">
          <mxGeometry x="0.0211" relative="1" as="geometry">
            <mxPoint y="1" as="offset" />
          </mxGeometry>
        </mxCell>
        <mxCell id="cHO__mHuen6s9dg0i_nT-38" value="" style="endArrow=open;endFill=1;endSize=12;html=1;rounded=0;entryX=0.588;entryY=-0.005;entryDx=0;entryDy=0;exitX=0.52;exitY=1.025;exitDx=0;exitDy=0;exitPerimeter=0;entryPerimeter=0;" edge="1" parent="1" source="cHO__mHuen6s9dg0i_nT-20" target="cHO__mHuen6s9dg0i_nT-44">
          <mxGeometry width="160" relative="1" as="geometry">
            <mxPoint x="500" y="490" as="sourcePoint" />
            <mxPoint x="699.9999999999998" y="390" as="targetPoint" />
          </mxGeometry>
        </mxCell>
        <mxCell id="cHO__mHuen6s9dg0i_nT-43" value="calls" style="edgeLabel;html=1;align=center;verticalAlign=middle;resizable=0;points=[];" vertex="1" connectable="0" parent="cHO__mHuen6s9dg0i_nT-38">
          <mxGeometry x="0.0579" y="-2" relative="1" as="geometry">
            <mxPoint as="offset" />
          </mxGeometry>
        </mxCell>
        <mxCell id="cHO__mHuen6s9dg0i_nT-41" value="" style="endArrow=open;endFill=1;endSize=12;html=1;rounded=0;entryX=-0.022;entryY=0.516;entryDx=0;entryDy=0;entryPerimeter=0;exitX=0.5;exitY=0.5;exitDx=0;exitDy=0;exitPerimeter=0;" edge="1" parent="1" source="cHO__mHuen6s9dg0i_nT-21" target="cHO__mHuen6s9dg0i_nT-4">
          <mxGeometry width="160" relative="1" as="geometry">
            <mxPoint x="110" y="270" as="sourcePoint" />
            <mxPoint x="660" y="490" as="targetPoint" />
          </mxGeometry>
        </mxCell>
        <mxCell id="cHO__mHuen6s9dg0i_nT-42" value="uses" style="edgeLabel;html=1;align=center;verticalAlign=middle;resizable=0;points=[];" vertex="1" connectable="0" parent="cHO__mHuen6s9dg0i_nT-41">
          <mxGeometry x="0.081" y="-3" relative="1" as="geometry">
            <mxPoint as="offset" />
          </mxGeometry>
        </mxCell>
        <mxCell id="cHO__mHuen6s9dg0i_nT-44" value="PrinterModel" style="swimlane;fontStyle=1;align=center;verticalAlign=top;childLayout=stackLayout;horizontal=1;startSize=26;horizontalStack=0;resizeParent=1;resizeParentMax=0;resizeLast=0;collapsible=1;marginBottom=0;whiteSpace=wrap;html=1;" vertex="1" parent="1">
          <mxGeometry x="560" y="360" width="210" height="150" as="geometry" />
        </mxCell>
        <mxCell id="cHO__mHuen6s9dg0i_nT-45" value="+ &lt;span class=&quot;token plain&quot;&gt;positionX: PrinterModelValue&lt;br&gt;+&amp;nbsp;extruderTemp: PrinterModelValue&lt;br&gt;&lt;/span&gt;&lt;span class=&quot;token operator&quot;&gt;+ ...: PrinterModelValue&lt;br&gt;&lt;/span&gt;" style="text;strokeColor=none;fillColor=none;align=left;verticalAlign=top;spacingLeft=4;spacingRight=4;overflow=hidden;rotatable=0;points=[[0,0.5],[1,0.5]];portConstraint=eastwest;whiteSpace=wrap;html=1;" vertex="1" parent="cHO__mHuen6s9dg0i_nT-44">
          <mxGeometry y="26" width="210" height="54" as="geometry" />
        </mxCell>
        <mxCell id="cHO__mHuen6s9dg0i_nT-46" value="" style="line;strokeWidth=1;fillColor=none;align=left;verticalAlign=middle;spacingTop=-1;spacingLeft=3;spacingRight=3;rotatable=0;labelPosition=right;points=[];portConstraint=eastwest;strokeColor=inherit;" vertex="1" parent="cHO__mHuen6s9dg0i_nT-44">
          <mxGeometry y="80" width="210" height="8" as="geometry" />
        </mxCell>
        <mxCell id="cHO__mHuen6s9dg0i_nT-47" value="+ move(...): void&lt;br style=&quot;border-color: var(--border-color);&quot;&gt;+ print(...): void&lt;br style=&quot;border-color: var(--border-color);&quot;&gt;+ ...(...): void" style="text;strokeColor=none;fillColor=none;align=left;verticalAlign=top;spacingLeft=4;spacingRight=4;overflow=hidden;rotatable=0;points=[[0,0.5],[1,0.5]];portConstraint=eastwest;whiteSpace=wrap;html=1;" vertex="1" parent="cHO__mHuen6s9dg0i_nT-44">
          <mxGeometry y="88" width="210" height="62" as="geometry" />
        </mxCell>
      </root>
    </mxGraphModel>
  </diagram>
</mxfile>
